<svg id="visual" viewBox="0 0 900 600" width="900" height="600" xmlns="http://www.w3.org/2000/svg" xmlns:xlink="http://www.w3.org/1999/xlink" version="1.1"><rect x="0" y="0" width="900" height="600" fill="#0d0d0d"></rect><path d="M0 109L15 113.5C30 118 60 127 90 127.8C120 128.7 150 121.3 180 118.7C210 116 240 118 270 119.2C300 120.3 330 120.7 360 122.8C390 125 420 129 450 127C480 125 510 117 540 113.7C570 110.3 600 111.7 630 114C660 116.3 690 119.7 720 122.7C750 125.7 780 128.3 810 125.8C840 123.3 870 115.7 885 111.8L900 108L900 0L885 0C870 0 840 0 810 0C780 0 750 0 720 0C690 0 660 0 630 0C600 0 570 0 540 0C510 0 480 0 450 0C420 0 390 0 360 0C330 0 300 0 270 0C240 0 210 0 180 0C150 0 120 0 90 0C60 0 30 0 15 0L0 0Z" fill="#4facf7"></path><path d="M0 125L15 121.3C30 117.7 60 110.3 90 104.8C120 99.3 150 95.7 180 95.7C210 95.7 240 99.3 270 98.5C300 97.7 330 92.3 360 94.5C390 96.7 420 106.3 450 112C480 117.7 510 119.3 540 119.8C570 120.3 600 119.7 630 117.7C660 115.7 690 112.3 720 109.3C750 106.3 780 103.7 810 105.5C840 107.3 870 113.7 885 116.8L900 120L900 0L885 0C870 0 840 0 810 0C780 0 750 0 720 0C690 0 660 0 630 0C600 0 570 0 540 0C510 0 480 0 450 0C420 0 390 0 360 0C330 0 300 0 270 0C240 0 210 0 180 0C150 0 120 0 90 0C60 0 30 0 15 0L0 0Z" fill="#428fcf"></path><path d="M0 82L15 81C30 80 60 78 90 77.3C120 76.7 150 77.3 180 77.2C210 77 240 76 270 80.7C300 85.3 330 95.7 360 95.8C390 96 420 86 450 85.7C480 85.3 510 94.7 540 97.2C570 99.7 600 95.3 630 93.8C660 92.3 690 93.7 720 91.3C750 89 780 83 810 83C840 83 870 89 885 92L900 95L900 0L885 0C870 0 840 0 810 0C780 0 750 0 720 0C690 0 660 0 630 0C600 0 570 0 540 0C510 0 480 0 450 0C420 0 390 0 360 0C330 0 300 0 270 0C240 0 210 0 180 0C150 0 120 0 90 0C60 0 30 0 15 0L0 0Z" fill="#3474a9"></path><path d="M0 83L15 83.8C30 84.7 60 86.3 90 87C120 87.7 150 87.3 180 85.2C210 83 240 79 270 74C300 69 330 63 360 61.2C390 59.3 420 61.7 450 65.3C480 69 510 74 540 75.2C570 76.3 600 73.7 630 71.7C660 69.7 690 68.3 720 69.3C750 70.3 780 73.7 810 75.3C840 77 870 77 885 77L900 77L900 0L885 0C870 0 840 0 810 0C780 0 750 0 720 0C690 0 660 0 630 0C600 0 570 0 540 0C510 0 480 0 450 0C420 0 390 0 360 0C330 0 300 0 270 0C240 0 210 0 180 0C150 0 120 0 90 0C60 0 30 0 15 0L0 0Z" fill="#275984"></path><path d="M0 47L15 46.2C30 45.3 60 43.7 90 43.5C120 43.3 150 44.7 180 46.3C210 48 240 50 270 52.8C300 55.7 330 59.3 360 61.2C390 63 420 63 450 61.7C480 60.3 510 57.7 540 55.2C570 52.7 600 50.3 630 49.8C660 49.3 690 50.7 720 50.2C750 49.7 780 47.3 810 50C840 52.7 870 60.3 885 64.2L900 68L900 0L885 0C870 0 840 0 810 0C780 0 750 0 720 0C690 0 660 0 630 0C600 0 570 0 540 0C510 0 480 0 450 0C420 0 390 0 360 0C330 0 300 0 270 0C240 0 210 0 180 0C150 0 120 0 90 0C60 0 30 0 15 0L0 0Z" fill="#1a4061"></path><path d="M0 36L15 34.8C30 33.7 60 31.3 90 32.3C120 33.3 150 37.7 180 37.5C210 37.3 240 32.7 270 33.5C300 34.3 330 40.7 360 44C390 47.3 420 47.7 450 47.8C480 48 510 48 540 47.2C570 46.3 600 44.7 630 42.7C660 40.7 690 38.3 720 36.5C750 34.7 780 33.3 810 35.5C840 37.7 870 43.3 885 46.2L900 49L900 0L885 0C870 0 840 0 810 0C780 0 750 0 720 0C690 0 660 0 630 0C600 0 570 0 540 0C510 0 480 0 450 0C420 0 390 0 360 0C330 0 300 0 270 0C240 0 210 0 180 0C150 0 120 0 90 0C60 0 30 0 15 0L0 0Z" fill="#0d2840"></path><path d="M0 13L15 14.3C30 15.7 60 18.3 90 20.8C120 23.3 150 25.7 180 26C210 26.3 240 24.7 270 22.5C300 20.3 330 17.7 360 17.3C390 17 420 19 450 18.8C480 18.7 510 16.3 540 16.2C570 16 600 18 630 19.8C660 21.7 690 23.3 720 24.2C750 25 780 25 810 24.7C840 24.3 870 23.7 885 23.3L900 23L900 0L885 0C870 0 840 0 810 0C780 0 750 0 720 0C690 0 660 0 630 0C600 0 570 0 540 0C510 0 480 0 450 0C420 0 390 0 360 0C330 0 300 0 270 0C240 0 210 0 180 0C150 0 120 0 90 0C60 0 30 0 15 0L0 0Z" fill="#001122"></path></svg>