<svg id="visual" viewBox="0 0 900 600" width="900" height="600" xmlns="http://www.w3.org/2000/svg" xmlns:xlink="http://www.w3.org/1999/xlink" version="1.1"><rect x="0" y="0" width="900" height="600" fill="#140021"></rect><path d="M705 0L705 0L705 67L701 67L701 133L539 133L539 200L595 200L595 267L713 267L713 333L716 333L716 400L550 400L550 467L695 467L695 533L678 533L678 600L0 600L0 533L0 533L0 467L0 467L0 400L0 400L0 333L0 333L0 267L0 267L0 200L0 200L0 133L0 133L0 67L0 67L0 0L0 0Z" fill="#9900ff"></path><path d="M570 0L604 0L604 67L570 67L570 133L576 133L576 200L601 200L601 267L593 267L593 333L470 333L470 400L565 400L565 467L596 467L596 533L465 533L465 600L0 600L0 533L0 533L0 467L0 467L0 400L0 400L0 333L0 333L0 267L0 267L0 200L0 200L0 133L0 133L0 67L0 67L0 0L0 0Z" fill="#8f00ee"></path><path d="M464 0L446 0L446 67L543 67L543 133L429 133L429 200L431 200L431 267L529 267L529 333L513 333L513 400L500 400L500 467L485 467L485 533L405 533L405 600L0 600L0 533L0 533L0 467L0 467L0 400L0 400L0 333L0 333L0 267L0 267L0 200L0 200L0 133L0 133L0 67L0 67L0 0L0 0Z" fill="#8500de"></path><path d="M325 0L378 0L378 67L463 67L463 133L325 133L325 200L337 200L337 267L392 267L392 333L433 333L433 400L408 400L408 467L377 467L377 533L369 533L369 600L0 600L0 533L0 533L0 467L0 467L0 400L0 400L0 333L0 333L0 267L0 267L0 200L0 200L0 133L0 133L0 67L0 67L0 0L0 0Z" fill="#7c00ce"></path><path d="M269 0L373 0L373 67L361 67L361 133L327 133L327 200L289 200L289 267L271 267L271 333L359 333L359 400L343 400L343 467L277 467L277 533L326 533L326 600L0 600L0 533L0 533L0 467L0 467L0 400L0 400L0 333L0 333L0 267L0 267L0 200L0 200L0 133L0 133L0 67L0 67L0 0L0 0Z" fill="#7200be"></path><path d="M201 0L254 0L254 67L292 67L292 133L297 133L297 200L287 200L287 267L258 267L258 333L297 333L297 400L193 400L193 467L233 467L233 533L199 533L199 600L0 600L0 533L0 533L0 467L0 467L0 400L0 400L0 333L0 333L0 267L0 267L0 200L0 200L0 133L0 133L0 67L0 67L0 0L0 0Z" fill="#6900ae"></path><path d="M177 0L150 0L150 67L199 67L199 133L212 133L212 200L155 200L155 267L122 267L122 333L212 333L212 400L164 400L164 467L141 467L141 533L201 533L201 600L0 600L0 533L0 533L0 467L0 467L0 400L0 400L0 333L0 333L0 267L0 267L0 200L0 200L0 133L0 133L0 67L0 67L0 0L0 0Z" fill="#5f009f"></path><path d="M92 0L72 0L72 67L90 67L90 133L112 133L112 200L53 200L53 267L96 267L96 333L67 333L67 400L91 400L91 467L109 467L109 533L120 533L120 600L0 600L0 533L0 533L0 467L0 467L0 400L0 400L0 333L0 333L0 267L0 267L0 200L0 200L0 133L0 133L0 67L0 67L0 0L0 0Z" fill="#560090"></path></svg>