<svg id="visual" viewBox="0 0 900 600" width="900" height="600" xmlns="http://www.w3.org/2000/svg" xmlns:xlink="http://www.w3.org/1999/xlink" version="1.1"><rect width="900" height="600" fill="#001829"></rect><g><g transform="translate(576 157)"><path d="M0 -100.4L78.5 -62.6L97.9 22.3L43.6 90.5L-43.6 90.5L-97.9 22.3L-78.5 -62.6Z" fill="#297EA6"></path></g><g transform="translate(6 17)"><path d="M0 -72L56.3 -44.9L70.2 16L31.2 64.9L-31.2 64.9L-70.2 16L-56.3 -44.9Z" fill="#297EA6"></path></g><g transform="translate(754 415)"><path d="M0 -67L52.4 -41.8L65.3 14.9L29.1 60.4L-29.1 60.4L-65.3 14.9L-52.4 -41.8Z" fill="#297EA6"></path></g><g transform="translate(62 434)"><path d="M0 -93L72.7 -58L90.7 20.7L40.4 83.8L-40.4 83.8L-90.7 20.7L-72.7 -58Z" fill="#297EA6"></path></g><g transform="translate(796 122)"><path d="M0 -61L47.7 -38L59.5 13.6L26.5 55L-26.5 55L-59.5 13.6L-47.7 -38Z" fill="#297EA6"></path></g><g transform="translate(289 95)"><path d="M0 -76L59.4 -47.4L74.1 16.9L33 68.5L-33 68.5L-74.1 16.9L-59.4 -47.4Z" fill="#297EA6"></path></g><g transform="translate(321 331)"><path d="M0 -72L56.3 -44.9L70.2 16L31.2 64.9L-31.2 64.9L-70.2 16L-56.3 -44.9Z" fill="#297EA6"></path></g><g transform="translate(498 589)"><path d="M0 -56L43.8 -34.9L54.6 12.5L24.3 50.5L-24.3 50.5L-54.6 12.5L-43.8 -34.9Z" fill="#297EA6"></path></g><g transform="translate(541 370)"><path d="M0 -96L75.1 -59.9L93.6 21.4L41.7 86.5L-41.7 86.5L-93.6 21.4L-75.1 -59.9Z" fill="#297EA6"></path></g></g></svg>