<svg id="visual" viewBox="0 0 900 600" width="900" height="600" xmlns="http://www.w3.org/2000/svg" xmlns:xlink="http://www.w3.org/1999/xlink" version="1.1"><path d="M0 163L82 163L82 193L164 193L164 271L245 271L245 211L327 211L327 115L409 115L409 85L491 85L491 91L573 91L573 187L655 187L655 163L736 163L736 175L818 175L818 151L900 151L900 121L900 0L900 0L818 0L818 0L736 0L736 0L655 0L655 0L573 0L573 0L491 0L491 0L409 0L409 0L327 0L327 0L245 0L245 0L164 0L164 0L82 0L82 0L0 0Z" fill="#334456"></path><path d="M0 337L82 337L82 343L164 343L164 373L245 373L245 343L327 343L327 229L409 229L409 241L491 241L491 193L573 193L573 301L655 301L655 259L736 259L736 307L818 307L818 205L900 205L900 211L900 119L900 149L818 149L818 173L736 173L736 161L655 161L655 185L573 185L573 89L491 89L491 83L409 83L409 113L327 113L327 209L245 209L245 269L164 269L164 191L82 191L82 161L0 161Z" fill="#263748"></path><path d="M0 493L82 493L82 421L164 421L164 499L245 499L245 421L327 421L327 469L409 469L409 481L491 481L491 403L573 403L573 445L655 445L655 427L736 427L736 457L818 457L818 403L900 403L900 403L900 209L900 203L818 203L818 305L736 305L736 257L655 257L655 299L573 299L573 191L491 191L491 239L409 239L409 227L327 227L327 341L245 341L245 371L164 371L164 341L82 341L82 335L0 335Z" fill="#1a2a3b"></path><path d="M0 559L82 559L82 517L164 517L164 559L245 559L245 541L327 541L327 511L409 511L409 523L491 523L491 517L573 517L573 499L655 499L655 535L736 535L736 541L818 541L818 523L900 523L900 517L900 401L900 401L818 401L818 455L736 455L736 425L655 425L655 443L573 443L573 401L491 401L491 479L409 479L409 467L327 467L327 419L245 419L245 497L164 497L164 419L82 419L82 491L0 491Z" fill="#0d1e2e"></path><path d="M0 601L82 601L82 601L164 601L164 601L245 601L245 601L327 601L327 601L409 601L409 601L491 601L491 601L573 601L573 601L655 601L655 601L736 601L736 601L818 601L818 601L900 601L900 601L900 515L900 521L818 521L818 539L736 539L736 533L655 533L655 497L573 497L573 515L491 515L491 521L409 521L409 509L327 509L327 539L245 539L245 557L164 557L164 515L82 515L82 557L0 557Z" fill="#001122"></path></svg>